<svg xmlns="http://www.w3.org/2000/svg" viewBox="0 0 184.97 49.26"><defs><style>.cls-1{fill:#272727;}</style></defs><g id="OBJECTS"><path class="cls-1" d="M128,39.46c1.28.22,2.54.51,3.78.66,4.56.56,9.08,1.3,13.59,2.17a25,25,0,0,0,4.3.33c2.07,0,3.84,1,5.81,1.31,1,.15.4,1.67,1.45,2.17-2.07.78-3.87-.26-5.77,0,1,1.26,2.39.35,3.49.85s2.35.22,2.41,1.82c-4.26,1-8.46.44-12.69-.11-3.89-.51-7.81-.77-11.72-1.16-4.5-.44-9-.35-13.52-.82-6.31-.65-12.64-.75-19-1.11-1.51-.09-3-.3-4.53-.27-6,.12-12.09-.54-18.12-.45-2.23,0-4.49-.12-6.72-.07-3.41.09-6.87.44-10.33-.12-1.55-.26-3.26.16-4.84.16-3.5,0-7,.42-10.54-.14-2.21-.34-4.52,0-6.79,0-5.64-.05-11.3.22-16.91-.79-1.68-.3-3.44-.22-5.08-1.2.67-1.06,1.91-.71,2.76-1.46-.08-.48-.92-.46-.9-1s.77-.66,1.07-1.06c-1.14-1-1.14-1-.67-2.08-5.68-.59-11.49.52-17.45-.59a2.69,2.69,0,0,1,2.22-1.34,7.63,7.63,0,0,0,2.2-.65c-1.14-.23-2.31,0-3-1,.24-.89,1.2-.32,1.64-.81,0-.94-1.14-.12-1.34-.8C4.13,30,6.24,30.32,8,29.74a16.41,16.41,0,0,1-5.87-1.66C3.43,26.13,5.55,27,7.6,26.33c-2-.72-3.7-.15-5.41-.5.05-1.28.6-1.85,1.91-2.21,1-.29,2.33.2,3.18-.93-1.81-.15-3.7.36-5.21-1,.42-.58.41-.66,2-.86,1-.12,1.08-1.39,2.16-1.22a8.51,8.51,0,0,1-2.92-1.45c-.28-.81.95-.56.74-1.33a5.86,5.86,0,0,1-2.87-.56c.43-1.38,2.07-.64,2.86-1.67-.92,0-1.76,0-2.59,0C.79,14.6,0,14.48,0,13.68S.79,13,1.36,12.8c2.07-.54,4.33-.06,6.3-1.27a3.47,3.47,0,0,0-2.47-1,2,2,0,0,1,1.57-.76c-.44-.43-1.1-.55-.9-1.18s.69-.6,1.2-.56c1.63.11,3.18-.62,4.83-.49C9.29,6.91,6.34,8.16,4,6.15,5,4.73,6.52,5,7.68,4.89c4.32-.27,8.54-1.17,12.83-1.6,5.65-.56,11.33-.91,17-1.75a52.05,52.05,0,0,1,6.12-.32c5.47-.15,11-.35,16.41-.59C63.78.46,67.61,1,71.36.07a4.67,4.67,0,0,1,2.12.15c1.7.43,3.39-.18,5.1-.19,8.33,0,16.65.65,25,.87,4.43.12,8.85.48,13.26.72,6.21.34,12.43,1,18.63,1.58,4.06.38,8.07,1.16,12.16,1.29,3.57.12,7.09,1.14,10.66,1.29,4.33.18,8.55,1,12.82,1.61,3.13.41,6.48.37,9.29,2.89-2.41.32-.72,3.1-2.9,3.73l1.29.47c-1,2-2.62,1.69-4.38,1.22,1.29,1.79,3.85,1.6,5,4-1.64-.77-2.73.28-4.29-.09,1,.89,2.35.68,2.82,1.84-.51,1.89-2.17,1-3.64,1.3a8.63,8.63,0,0,1,3.06,2.47c-2.55,1.57-5-.92-7.49.18,2.14.22,4.22.44,5.16,2.74-.2.47-1.06.39-1,1.16.17.41.64.11.91.28.65.41,1.95.07,1.87,1.27-.06,1-1.2.73-1.86,1,.85.63,2.31.4,2.68,2-4.88.48-9.71-1-14.16.54,1.47,1,3.76,1.46,5.73,3a4.14,4.14,0,0,1-3.64.71A5.05,5.05,0,0,0,164,38c-2.86,0-5.84-.51-8.12,2,.71.61,2.45,0,2.59,1.53A1.11,1.11,0,0,1,157,42.66c.51-.8.29-1.38-.65-1.38a83.43,83.43,0,0,1-9.21-.73c-4.53-.48-9.08-.86-13.62-1.24A13.88,13.88,0,0,0,128,39.46ZM23,39.38a3.59,3.59,0,0,0,3.49.63,4.07,4.07,0,0,1,1.78-.19,46.3,46.3,0,0,0,8.88.31c4.12-.28,8.25-.4,12.36-.27,5.15.17,10.31.49,15.46.24a59,59,0,0,1,7.88.2c4.7.39,9.41,0,14.11.47s9.49.3,14.24.56c.71,0,1.49.07,2.21.13,2.5.23,5,.09,7.2.09A527.92,527.92,0,0,0,23,39.38Zm71.16-9.77c0-.17,0-.34.05-.51a185.85,185.85,0,0,0-26.7-.51ZM145.5,38.8c-8.19-2-16.53-2.49-24.87-2.93ZM77.18,6.07c-7.46-.2-15-.55-22.43.3C62.22,6.05,69.69,6.29,77.18,6.07ZM17.76,32.32c-1.2-1-4.39-.77-6.29.39A13.8,13.8,0,0,0,17.76,32.32ZM155.3,10,142.61,8.52A45.55,45.55,0,0,0,155.3,10ZM58.05,35.15c0-.12,0-.24,0-.36H48.49v.36Zm-15.76-.74c-1.67.3-3.4-.43-5,.35C38.92,34.46,40.7,35.82,42.29,34.41Z"/><path class="cls-1" d="M181.9,10.92A5.07,5.07,0,0,1,185,13.21C183.07,13.69,181.73,12.69,181.9,10.92Z"/><path class="cls-1" d="M158.83,46.74c.71-1.17.85-2.6,2.64-1.91C161.19,46.19,160.39,46.65,158.83,46.74Z"/><path class="cls-1" d="M175,34.86c.19,1.48-1.19,1.35-1.91,1.92-.18-.38-.72-.66-.22-1.17S174,34.38,175,34.86Z"/></g></svg>