<?xml version="1.0" encoding="utf-8"?>
<!-- Generator: Adobe Illustrator 24.1.3, SVG Export Plug-In . SVG Version: 6.00 Build 0)  -->
<svg version="1.1" id="Layer_1" xmlns="http://www.w3.org/2000/svg" xmlns:xlink="http://www.w3.org/1999/xlink" x="0px" y="0px"
	 viewBox="0 0 133.4 224.6" style="enable-background:new 0 0 133.4 224.6;" xml:space="preserve">
<style type="text/css">
	.st0{fill:#ED3737;}
	.st1{fill:none;stroke:#FFFFFF;stroke-miterlimit:10;}
	.st2{fill:#FFFFFF;}
	.st3{fill:#265670;}
	.st4{fill:#2B576B;}
	.st5{font-family:'Nunito-Bold';}
	.st6{font-size:15px;}
</style>
<g>
	<g id="Objects">
		
			<image style="overflow:visible;opacity:0.4;enable-background:new    ;" width="556" height="936" xlink:href="3573222A.png"  transform="matrix(0.24 0 0 0.24 0 0)">
		</image>
		<path class="st0" d="M63.9,1L1,29.6v189.8h127.3V29.6L63.9,1z M63.9,26.9c-2.5,0-4.6-2-4.6-4.6c0-2.5,2-4.6,4.6-4.6
			c2.5,0,4.6,2,4.6,4.6c0,0,0,0,0,0C68.5,24.9,66.4,26.9,63.9,26.9C63.9,26.9,63.9,26.9,63.9,26.9L63.9,26.9z"/>
		<path class="st1" d="M63.9,8.7L8.1,34.1v178.3h113.3V34.2L63.9,8.7z M63.8,17.7c2.5,0,4.6,2,4.6,4.6c0,2.5-2,4.6-4.6,4.6
			c-2.5,0-4.6-2-4.6-4.6c0,0,0,0,0,0C59.3,19.8,61.3,17.7,63.8,17.7L63.8,17.7z"/>
		<path class="st2" d="M77.1,44.1c0,0.8-0.7,1.5-1.5,1.5s-1.5-0.7-1.5-1.5s0.7-1.5,1.5-1.5S77.1,43.3,77.1,44.1z"/>
		<path class="st2" d="M53.7,44.1c0,0.8-0.7,1.5-1.5,1.5s-1.5-0.7-1.5-1.5s0.7-1.5,1.5-1.5S53.7,43.3,53.7,44.1z"/>
		<polygon class="st1" points="63.8,46.7 60.8,48.7 61.9,45.3 59,43 62.6,43 63.8,39.5 65,43 68.7,43 65.8,45.3 66.8,48.7 		"/>
		<path class="st3" d="M46,146.1c-17.1,0-31,13.9-31,31s13.9,31,31,31s31-13.9,31-31S63.2,146.1,46,146.1z M65.7,200.1
			c-12.7,10.9-31.8,9.3-42.7-3.4c-10.9-12.7-9.3-31.8,3.4-42.7s31.8-9.3,42.7,3.4c4.7,5.5,7.3,12.5,7.2,19.7
			C76.4,186,72.5,194.4,65.7,200.1L65.7,200.1z"/>
		<path class="st2" d="M46.1,147.3c-16.5,0-29.8,13.4-29.8,29.8c0,16.5,13.4,29.8,29.8,29.8c16.5,0,29.8-13.4,29.8-29.8
			C75.9,160.7,62.6,147.3,46.1,147.3z M65.1,177.1c0.1,1.2,0,2.5-0.2,3.7c-0.4,2.5-1.3,4.9-2.7,7c-0.7,1.1-1.5,2-2.4,2.9
			c-0.9,0.9-1.9,1.7-2.9,2.4c-1.1,0.7-2.2,1.3-3.3,1.7c-1.2,0.5-2.4,0.8-3.6,1c-1.2,0.2-2.5,0.3-3.7,0.2c2.5-0.1,4.9-0.7,7.1-1.7
			c1.1-0.5,2.2-1.1,3.2-1.8c1-0.7,1.9-1.5,2.8-2.3c1.7-1.7,3.1-3.8,4.1-6C64.4,182,64.9,179.6,65.1,177.1z M62.8,177.1
			c0.1,1.1,0,2.2-0.2,3.3c-0.2,1.1-0.5,2.2-0.9,3.2c-0.4,1-0.9,2-1.5,2.9c-1.8,2.8-4.5,5-7.6,6.2c-1,0.4-2.1,0.7-3.2,0.9
			c-1.1,0.2-2.2,0.2-3.3,0.2c2.2-0.1,4.3-0.6,6.3-1.5c1-0.4,1.9-1,2.8-1.6c0.9-0.6,1.7-1.3,2.5-2c1.5-1.5,2.7-3.3,3.6-5.3
			C62.1,181.4,62.6,179.3,62.8,177.1L62.8,177.1z M60.5,177.1c0.1,1.9-0.2,3.8-0.8,5.6c-0.3,0.9-0.8,1.7-1.3,2.6
			c-0.5,0.8-1.1,1.5-1.8,2.2c-0.7,0.7-1.4,1.3-2.2,1.8c-0.8,0.5-1.7,1-2.6,1.3c-1.8,0.7-3.7,1-5.6,0.9c1.9-0.1,3.7-0.6,5.4-1.3
			c0.8-0.4,1.6-0.8,2.4-1.4c0.8-0.5,1.5-1.1,2.1-1.7c1.3-1.3,2.4-2.8,3.1-4.5C59.9,180.8,60.3,179,60.5,177.1L60.5,177.1z
			 M46.1,187.7c-5.9,0-10.6-4.7-10.6-10.6c0-5.9,4.7-10.6,10.6-10.6s10.6,4.7,10.6,10.6C56.7,183,52,187.7,46.1,187.7
			C46.1,187.7,46.1,187.7,46.1,187.7L46.1,187.7z M18.5,171.6c0.3-1.8,0.8-3.6,1.5-5.3c0.7-1.7,1.5-3.4,2.6-4.9
			c2-3.1,4.7-5.8,7.8-7.8c4.6-3.1,10.1-4.7,15.7-4.4c-3.7,0.1-7.2,0.9-10.6,2.3c-3.3,1.4-6.4,3.5-8.9,6.1c-2.6,2.6-4.6,5.6-6.1,8.9
			c-1.4,3.4-2.2,7-2.4,10.6C18.1,175.3,18.2,173.4,18.5,171.6z M20.4,177.1c-0.1-1.7,0.1-3.3,0.3-5c0.3-1.7,0.8-3.3,1.4-4.9
			c1.3-3.2,3.2-6.1,5.6-8.5c1.2-1.2,2.6-2.3,4-3.2c2.8-1.9,6-3.2,9.3-3.8c1.7-0.3,3.3-0.4,5-0.3c-3.4,0.1-6.6,0.9-9.7,2.2
			c-3.1,1.3-5.8,3.2-8.2,5.6c-2.4,2.4-4.2,5.1-5.6,8.2C21.2,170.5,20.5,173.8,20.4,177.1z M22.7,177.1c-0.1-1.5,0-3.1,0.3-4.6
			c0.3-1.5,0.7-3,1.3-4.5c0.6-1.4,1.3-2.8,2.1-4.1c0.9-1.3,1.8-2.5,2.9-3.6c1.1-1.1,2.3-2.1,3.6-2.9c1.3-0.9,2.7-1.6,4.1-2.1
			c1.4-0.6,2.9-1,4.5-1.3c1.5-0.3,3.1-0.4,4.6-0.3c-3.1,0.1-6.1,0.8-8.9,2c-1.4,0.6-2.7,1.3-4,2.2c-3.8,2.6-6.7,6.2-8.6,10.4
			C23.5,171.1,22.8,174.1,22.7,177.1z M25,177.1c-0.1-1.4,0-2.8,0.2-4.2c0.2-1.4,0.6-2.7,1.1-4c0.5-1.3,1.2-2.6,1.9-3.7
			c1.5-2.4,3.6-4.4,5.9-5.9c1.2-0.8,2.4-1.4,3.7-1.9c1.3-0.5,2.6-0.9,4-1.1c1.4-0.2,2.8-0.3,4.2-0.2c-2.8,0.1-5.5,0.8-8,1.9
			c-2.5,1.1-4.8,2.7-6.7,4.6c-1.9,1.9-3.5,4.2-4.6,6.7C25.7,171.7,25.1,174.4,25,177.1z M27.2,177.1c-0.1-1.2,0-2.5,0.2-3.7
			c0.4-2.5,1.3-4.9,2.7-7c0.7-1,1.5-2,2.4-2.9c0.9-0.9,1.9-1.7,2.9-2.4c2.1-1.4,4.5-2.3,7-2.7c1.2-0.2,2.5-0.3,3.7-0.2
			c-2.5,0.1-4.9,0.7-7.1,1.7c-1.1,0.5-2.2,1.1-3.2,1.8c-1,0.7-1.9,1.5-2.8,2.3c-1.7,1.7-3.1,3.8-4.1,6
			C27.9,172.2,27.4,174.7,27.2,177.1z M29.5,177.1c-0.1-2.2,0.2-4.4,1-6.5c0.4-1,0.9-2,1.6-2.9c1.2-1.9,2.8-3.5,4.7-4.7
			c0.9-0.6,1.9-1.1,3-1.5c1-0.4,2.1-0.7,3.2-0.9c1.1-0.2,2.2-0.2,3.3-0.2c-2.2,0.1-4.3,0.6-6.3,1.5c-1,0.4-1.9,1-2.8,1.6
			c-0.9,0.6-1.7,1.3-2.5,2c-1.5,1.5-2.7,3.3-3.6,5.3C30.2,172.8,29.6,175,29.5,177.1z M31.8,177.1c-0.1-1.9,0.2-3.8,0.9-5.6
			c0.3-0.9,0.8-1.7,1.3-2.6c0.5-0.8,1.1-1.6,1.8-2.2c0.7-0.7,1.4-1.3,2.2-1.8c0.8-0.5,1.7-1,2.6-1.3c1.8-0.7,3.7-1,5.6-0.9
			c-1.9,0.1-3.7,0.6-5.4,1.3c-0.8,0.4-1.7,0.9-2.4,1.4c-0.8,0.5-1.5,1.1-2.1,1.8c-1.3,1.3-2.4,2.8-3.1,4.5
			C32.3,173.5,31.9,175.3,31.8,177.1z M42.5,189c-1.2-0.4-2.3-0.9-3.3-1.5c-2.1-1.4-3.7-3.3-4.7-5.6c-0.5-1.1-0.8-2.3-0.9-3.6
			c0-0.6,0-1.2,0-1.9V176c0-0.1,0-0.2,0-0.2v-0.2l0.1-0.9c0.3-1.2,0.7-2.4,1.3-3.5c1.2-2.2,3-4,5.2-5.2c1.1-0.6,2.3-1,3.5-1.2
			l0.9-0.1h0.2H45h0.5c0.6,0,1.2,0,1.8,0c1.2,0.1,2.4,0.4,3.6,0.9c2.3,1,4.2,2.6,5.6,4.6c0.7,1,1.2,2.1,1.5,3.3
			c0.3,1.2,0.5,2.4,0.5,3.6l-0.1-0.9c0-0.1,0-0.3,0-0.4l-0.1-0.4l-0.1-0.4v-0.2l-0.1-0.2l-0.2-0.9c-0.4-1.1-0.9-2.2-1.6-3.2
			c-0.7-1-1.5-1.9-2.4-2.6c-0.9-0.7-2-1.3-3.1-1.8l-0.8-0.3l-0.2-0.1l-0.2-0.1l-0.4-0.1l-0.4-0.1c-0.1,0-0.3-0.1-0.4-0.1
			c-0.3,0-0.6-0.1-0.9-0.1c-0.6,0-1.2,0-1.8,0h-0.4h-0.4h-0.2l-0.9,0.1c-1.2,0.3-2.3,0.7-3.4,1.2c-1,0.6-2,1.3-2.8,2.1
			c-0.8,0.8-1.6,1.8-2.1,2.9c-0.6,1.1-1,2.2-1.2,3.4l-0.1,0.9v0.2c0,0.1,0,0.2,0,0.2v0.4c0,0.6,0,1.2,0,1.8c0,0.3,0.1,0.6,0.1,0.9
			c0,0.1,0,0.3,0.1,0.4l0.1,0.4l0.1,0.4v0.2c0,0.1,0,0.1,0.1,0.2l0.3,0.9c0.5,1.1,1.1,2.1,1.8,3.1c0.8,0.9,1.7,1.7,2.6,2.4
			c1,0.7,2.1,1.2,3.2,1.6l0.9,0.2l0.2,0.1h0.2l0.4,0.1l0.5,0.1c0.1,0,0.3,0,0.5,0l0.9,0.1C44.9,189.4,43.7,189.3,42.5,189z
			 M72.3,188c-1.4,3.5-3.4,6.6-6.1,9.2c-2.6,2.6-5.8,4.7-9.2,6.1c-3.4,1.4-7.1,2-10.8,1.8l0,0c3.6-0.2,7.2-1,10.6-2.4
			c0.4-0.2,0.8-0.4,1.2-0.6s0.8-0.4,1.2-0.6s0.8-0.4,1.2-0.7l0.6-0.4l0.3-0.2l0.3-0.2c0.4-0.3,0.7-0.5,1.1-0.8l0.5-0.4l0.5-0.4
			c0.3-0.3,0.7-0.6,1-0.9l0.5-0.4l0.5-0.5c2.6-2.6,4.6-5.6,6.1-8.9c1.4-3.4,2.2-6.9,2.4-10.6C74.2,180.8,73.6,184.5,72.3,188z
			 M71.8,177.1c0.1,1.7,0,3.4-0.3,5.1c-0.3,1.7-0.8,3.3-1.4,4.9c-0.6,1.6-1.4,3.1-2.3,4.5c-0.9,1.4-2,2.7-3.2,3.9
			c-1.2,1.2-2.5,2.3-4,3.2c-4.3,2.8-9.3,4.3-14.5,4.1c3.4-0.1,6.7-0.9,9.7-2.2c1.5-0.7,3-1.5,4.4-2.4c1.4-0.9,2.7-2,3.8-3.1
			c2.4-2.4,4.2-5.1,5.6-8.2C70.9,183.8,71.7,180.5,71.8,177.1z M69.6,177.1c0.2,3.1-0.4,6.2-1.5,9.1c-0.6,1.4-1.3,2.8-2.1,4.1
			c-0.9,1.3-1.8,2.5-2.9,3.6c-1.1,1.1-2.3,2.1-3.6,2.9c-2.6,1.7-5.5,2.9-8.6,3.4c-1.5,0.2-3.1,0.3-4.6,0.3c3.1-0.1,6.1-0.8,8.9-2
			c1.4-0.6,2.7-1.3,4-2.2c1.2-0.8,2.4-1.8,3.4-2.9c2.1-2.1,3.9-4.7,5.1-7.5C68.7,183.2,69.4,180.2,69.6,177.1z M67.1,181.3
			c-0.2,1.4-0.6,2.7-1.1,4c-0.5,1.3-1.2,2.6-1.9,3.7c-1.6,2.4-3.6,4.4-5.9,6c-1.2,0.8-2.4,1.4-3.7,1.9c-1.3,0.5-2.6,0.9-4,1.1
			c-1.4,0.2-2.8,0.3-4.2,0.2c2.8-0.1,5.5-0.8,8-1.9c2.5-1.1,4.8-2.7,6.7-4.6c1.9-1.9,3.5-4.2,4.6-6.7c1.1-2.5,1.7-5.2,1.8-8
			C67.4,178.5,67.3,179.9,67.1,181.3z"/>
		<path class="st4" d="M46.1,176.5c-0.4,0-0.7,0.3-0.7,0.7c0,0.4,0.3,0.7,0.7,0.7s0.7-0.3,0.7-0.7C46.8,176.8,46.5,176.5,46.1,176.5
			L46.1,176.5z"/>
		<path class="st3" d="M46.1,175.7c-0.8,0-1.5,0.6-1.5,1.4s0.6,1.4,1.5,1.4c0.8,0,1.5-0.6,1.5-1.4l0,0
			C47.6,176.3,46.9,175.7,46.1,175.7z M46.1,178.4c-0.7,0-1.2-0.6-1.2-1.2c0-0.7,0.6-1.2,1.2-1.2s1.2,0.6,1.2,1.2l0,0
			C47.4,177.8,46.8,178.4,46.1,178.4C46.1,178.4,46.1,178.4,46.1,178.4L46.1,178.4z"/>
		<path class="st3" d="M46.1,167.3c-5.4,0-9.8,4.4-9.8,9.8c0,5.4,4.4,9.8,9.8,9.8s9.8-4.4,9.8-9.8l0,0
			C55.9,171.7,51.5,167.3,46.1,167.3z M46.1,186.5c-5.2,0-9.3-4.2-9.3-9.3s4.2-9.3,9.3-9.3s9.3,4.2,9.3,9.3l0,0
			C55.5,182.3,51.3,186.5,46.1,186.5C46.1,186.5,46.1,186.5,46.1,186.5L46.1,186.5z"/>
		<text transform="matrix(1 0 0 1 82.32 172.44)" class="st2 st5 st6">45%</text>
		<text transform="matrix(1 0 0 1 82.32 190.44)" class="st2 st5 st6">OFF</text>
	</g>
</g>
</svg>
